<svg width="113" height="112" viewBox="0 0 113 112" fill="none" xmlns="http://www.w3.org/2000/svg">
<path fill-rule="evenodd" clip-rule="evenodd" d="M36.7098 9.4515C72.4243 9.4515 102.615 33.0566 112.551 65.5197V112H0V18.4423C10.9814 12.7028 23.4724 9.4515 36.7098 9.4515Z" fill="#F9D4DB"/>
<path d="M37.3566 77.8614C41.6696 77.7287 56.1677 74.0959 58.9711 73.3826C59.2863 73.3162 59.5517 73.1338 59.7342 72.8684L60.464 71.8233L63.3006 68.2402C63.6656 67.7758 64.1964 67.5104 64.777 67.5104H69.4051C69.4051 67.5104 70.1018 67.2781 70.5331 68.8706L70.5497 68.9867C71.6777 68.937 72.872 68.8872 73.9005 68.854C73.6849 67.9085 70.1516 52.5809 68.4927 48.3344C66.7676 43.9717 57.0634 40.7701 57.0634 40.7701V40.7369C56.6985 40.7204 56.317 40.6706 55.9354 40.6042L55.9189 40.7701C47.9565 44.5854 42.217 36.6562 41.4041 35.4453C38.0699 36.988 24.9984 43.3579 23.1737 48.9315C21.1001 55.1687 18.728 68.2734 19.856 79.6032C19.9058 80.0677 20.2044 80.4492 20.6357 80.5985C21.1001 80.781 21.7305 80.98 22.3277 81.0464C22.2281 80.4824 22.1286 79.8852 22.0457 79.2548V79.2382C26.0932 78.0107 37.3566 77.8614 37.3566 77.8614Z" fill="#EC2029"/>
<path d="M29.8589 90.7837L29.5437 112H74.5642C73.9338 105 73.0381 95.9426 71.993 87.9637C71.5949 84.8285 71.1636 81.8426 70.7157 79.2216C70.7157 79.2216 66.7179 82.2075 60.7794 80.416C60.7794 80.416 40.0109 89.0917 29.8589 90.7837Z" fill="#EC2029"/>
<path d="M55.9356 40.6042C56.3171 40.6705 56.6987 40.7203 57.0636 40.7369C60.149 40.8696 63.1183 39.4762 64.8435 36.623C69.3389 29.1583 69.9858 18.2101 69.9858 18.2101C70.0024 18.0608 70.019 17.9115 70.0024 17.7622C69.9858 16.9659 69.6707 16.2195 68.8578 16.0536C68.0284 15.8711 58.2911 10.7951 56.1678 16.2029C56.1678 16.2029 50.0634 20.7149 49.7979 20.9471C49.5491 21.1959 48.4377 26.1061 48.4377 26.1061C48.4377 26.1061 48.0064 26.7032 47.7576 26.0563H46.3642C45.6675 26.1558 45.1201 26.0895 44.6722 25.907C44.6722 25.907 44.4399 33.9523 42.1674 35.0969C42.1674 35.0969 41.8854 35.213 41.4043 35.4452C42.2171 36.6562 47.9567 44.5854 55.919 40.7701L55.9356 40.6042Z" fill="white"/>
<path d="M42.9303 20.4495C42.7644 22.4401 42.8805 25.144 44.672 25.907C45.1199 26.0895 45.6673 26.1558 46.364 26.0563H47.7575C47.575 25.5089 47.5252 24.1321 48.0063 20.8476C48.1722 19.6864 47.8736 18.4921 47.1271 17.5963C46.5299 16.883 45.6673 16.402 44.5559 17.0655C43.7265 17.5465 43.1957 18.4257 43.063 19.3878C43.0132 19.703 42.9635 20.0514 42.9303 20.4329C42.9303 20.4495 42.9303 20.4495 42.9303 20.4495Z" fill="white"/>
<path d="M70.0024 17.7622C70.0024 17.7622 74.7798 12.7858 72.0759 8.70506C69.7038 5.17177 69.2559 8.52259 69.1895 9.46812C69.2393 8.32353 69.372 3.51294 67.5307 3.34706C65.424 3.18118 66.27 5.66941 66.27 5.66941C66.27 5.66941 56.0517 -3.96835 50.9922 2.31859C50.9922 2.31859 43.428 3.24753 42.6981 10.1814C41.9682 16.9162 42.8806 20.2505 42.9304 20.4329C42.9635 20.0514 43.0133 19.7031 43.0631 19.3879C43.1958 18.4258 43.7266 17.5466 44.556 17.0655C45.6674 16.402 46.53 16.8831 47.1272 17.5964C47.8737 18.4921 48.1722 19.6865 48.0064 20.8477C47.5253 24.1321 47.5751 25.5089 47.7575 26.0564C48.0064 26.7033 48.4377 26.1061 48.4377 26.1061C48.4377 26.1061 49.5491 21.196 49.7979 20.9472C50.0633 20.7149 56.1678 16.2029 56.1678 16.2029C58.2911 10.7952 68.0284 15.8712 68.8578 16.0536C69.6706 16.2195 69.9858 16.966 70.0024 17.7622Z" fill="black"/>
<path d="M71.6279 78.1102L70.7156 79.2216C71.1635 81.8426 71.5948 84.8284 71.9929 87.9636C76.2892 87.5655 80.1377 78.0604 80.2538 77.7619C79.7064 78.16 78.8106 78.6742 77.7158 78.7406C77.7158 78.7406 74.1825 78.359 73.2038 77.4799C73.1375 77.4964 73.0711 77.513 73.0048 77.5296L71.6279 78.1102Z" fill="white"/>
<path d="M77.2348 72.7522C75.9741 72.7688 76.057 74.1456 76.057 74.1456C76.1068 74.3115 76.2229 74.4442 76.3888 74.5769C77.7822 75.6054 82.5928 75.0911 82.5928 75.0911C84.1687 74.129 83.953 72.0389 83.8535 71.4086L83.0739 71.4251C82.5264 71.674 81.9293 71.7901 81.2989 71.8233V71.8398C81.133 72.1218 80.2704 72.52 80.2704 72.52C80.1377 72.7356 78.4955 72.7522 77.2348 72.7522Z" fill="white"/>
<path d="M74.4646 66.7804C74.4646 66.7804 73.7679 67.9582 73.9172 68.854C74.2987 68.8374 74.6471 68.8208 74.9623 68.8042L78.2633 65.8681L78.1804 65.7685C78.1804 65.7685 75.9907 64.1761 74.4646 66.7804Z" fill="white"/>
<path d="M80.8842 77.2311C80.8179 77.2477 78.7609 76.9989 77.2348 76.4349C77.2348 76.4349 75.9243 76.6173 75.5428 76.5344C74.9622 76.833 74.0996 77.2477 73.2039 77.4799C74.1826 78.3591 77.7159 78.7406 77.7159 78.7406C78.8107 78.6743 79.7064 78.16 80.2539 77.7619C80.2704 77.7619 80.2704 77.7619 80.2704 77.7619C80.6686 77.4633 80.8842 77.2311 80.8842 77.2311Z" fill="white"/>
<path d="M76.422 74.9419L75.5926 75.0082C75.576 75.6054 76.3059 76.0699 77.2348 76.4348C78.7609 76.9988 80.8179 77.2476 80.8842 77.2311C82.626 76.2524 82.5928 75.0912 82.5928 75.0912C82.5928 75.0912 77.7822 75.6054 76.3888 74.5769L76.422 74.9419Z" fill="white"/>
<path d="M70.5497 68.9867L70.5331 68.8706C70.1018 67.2781 69.4051 67.5103 69.4051 67.5103H64.777C64.1964 67.5103 63.6656 67.7757 63.3006 68.2402L60.464 71.8233L59.7341 72.8683C59.5517 73.1337 59.2863 73.3162 58.9711 73.3826C56.1677 74.0959 41.6695 77.7287 37.3566 77.8614C37.3566 77.8614 26.0932 78.0107 22.0457 79.2382V79.2548C22.1286 79.8852 22.2281 80.4823 22.3277 81.0463C23.1737 85.9564 24.4841 88.0963 25.4297 89.7386C25.9107 90.6012 26.8065 91.0988 27.752 91.049C28.3824 90.9993 29.0957 90.9163 29.8587 90.7836C40.0107 89.0916 60.7792 80.416 60.7792 80.416C66.7178 82.2075 70.7156 79.2216 70.7156 79.2216L71.6279 78.1102L73.0047 77.5296C73.0711 77.513 73.1374 77.4964 73.2038 77.4799C74.0996 77.2476 74.9621 76.8329 75.5427 76.5343C75.9243 76.6173 77.2347 76.4348 77.2347 76.4348C76.3058 76.0699 75.5759 75.6054 75.5925 75.0082L76.4219 74.9419L76.3887 74.5769C76.2229 74.4442 76.1067 74.3115 76.057 74.1456C76.057 74.1456 75.974 72.7688 77.2347 72.7522C78.4954 72.7522 80.1377 72.7356 80.2704 72.52C80.2704 72.52 81.133 72.1219 81.2989 71.8399V71.8233C79.4078 71.9228 77.467 71.2261 77.467 71.2261L79.4244 70.463C79.4244 70.463 81.6306 69.9322 81.5974 68.9037C81.5974 68.8374 81.5974 68.771 81.5643 68.7047C81.2159 67.5269 77.5499 68.6217 76.82 68.7047C76.6376 68.7213 75.9408 68.7544 74.9621 68.8042C74.647 68.8208 74.2986 68.8374 73.9171 68.854C73.9171 68.8706 73.9171 68.8871 73.9171 68.9037C73.9171 68.9037 73.9171 68.8871 73.9005 68.854C72.872 68.8871 71.6777 68.9369 70.5497 68.9867Z" fill="white"/>
<path d="M81.5975 68.9038L83.0738 67.9251L85.5123 66.3326C86.1592 65.9013 85.8938 64.8728 85.1307 64.8396L80.1377 64.5908C79.8723 64.5742 79.5903 64.6738 79.3912 64.8562L78.2632 65.8681L74.9622 68.8042C75.9409 68.7545 76.6376 68.7213 76.82 68.7047C77.5499 68.6218 81.2159 67.5269 81.5643 68.7047C81.5975 68.7711 81.5975 68.8374 81.5975 68.9038Z" fill="white"/>
<path d="M83.0739 67.925L81.5975 68.9037C81.6307 69.9322 79.4245 70.463 79.4245 70.463L77.467 71.2261C77.467 71.2261 79.4079 71.9228 81.2989 71.8233C81.9293 71.7901 82.5265 71.674 83.0739 71.4251L83.8535 71.4085C83.8369 71.2924 83.8037 71.2261 83.8037 71.2261C84.2848 69.7331 83.1236 67.9914 83.1236 67.9914L83.0739 67.925Z" fill="white"/>
<path d="M44.672 25.907C44.672 25.907 44.4398 33.9523 42.1672 35.0969C42.1672 35.0969 41.8852 35.213 41.4041 35.4453C38.0699 36.988 24.9984 43.3579 23.1737 48.9315C21.1001 55.1687 18.728 68.2734 19.856 79.6032C19.9058 80.0676 20.2044 80.4492 20.6357 80.5985C21.1001 80.7809 21.7305 80.98 22.3277 81.0463C22.3774 81.0629 22.4272 81.0629 22.477 81.0629" stroke="#231F1F" stroke-width="0.0790944"/>
<path d="M21.3159 79.5202C21.5316 79.4207 21.7638 79.3211 22.0458 79.2382C26.0933 78.0107 37.3567 77.8614 37.3567 77.8614C41.6697 77.7287 56.1678 74.0959 58.9712 73.3826C59.2864 73.3162 59.5518 73.1337 59.7343 72.8683" stroke="#231F1F" stroke-width="0.0790944"/>
<path d="M59.7344 72.8684L60.4643 71.8233L63.3008 68.2402" stroke="#231F1F" stroke-width="0.0790944"/>
<path d="M63.3008 68.2402C63.6657 67.7757 64.1965 67.5103 64.7771 67.5103" stroke="#231F1F" stroke-width="0.0790944"/>
<path d="M64.7771 67.5103H69.4052" stroke="#231F1F" stroke-width="0.0790944"/>
<path d="M69.4053 67.5103C69.4053 67.5103 70.102 67.2781 70.5333 68.8706" stroke="#231F1F" stroke-width="0.0790944"/>
<path d="M36.3447 51.2207C36.3447 51.2207 37.4727 75.9206 37.3566 77.8614" stroke="#231F1F" stroke-width="0.0790944"/>
<path d="M57.0635 40.7701C57.0635 40.7701 66.7676 43.9716 68.4928 48.3344C70.1516 52.5809 73.6849 67.9085 73.9005 68.854C73.9171 68.8872 73.9171 68.9038 73.9171 68.9038" stroke="#231F1F" stroke-width="0.0790944"/>
<path d="M41.3047 35.296C41.3047 35.296 41.3379 35.3458 41.4042 35.4453C42.217 36.6562 47.9566 44.5854 55.9189 40.7701" stroke="#231F1F" stroke-width="0.0790944"/>
<path d="M29.8589 90.7836L29.5437 112" stroke="#231F1F" stroke-width="0.0790944"/>
<path d="M78.1804 65.7685C78.1804 65.7685 75.9907 64.1761 74.4646 66.7804C74.4646 66.7804 73.7679 67.9582 73.9172 68.854C73.9172 68.8705 73.9172 68.8871 73.9172 68.9037" stroke="#231F1F" stroke-width="0.0790944"/>
<path d="M66.27 69.0862C66.3198 69.1194 68.2938 69.0696 70.5498 68.9867C71.6778 68.9369 72.8721 68.8872 73.9006 68.854C73.9172 68.8374 73.9172 68.854 73.9172 68.854C74.2987 68.8374 74.6471 68.8208 74.9623 68.8042C75.941 68.7545 76.6377 68.7213 76.8201 68.7047C77.55 68.6218 81.216 67.5269 81.5644 68.7047C81.5976 68.7711 81.5976 68.8374 81.5976 68.9038C81.6307 69.9322 79.4245 70.4631 79.4245 70.4631" stroke="#231F1F" stroke-width="0.0790944"/>
<path d="M79.4244 70.463L77.467 71.2261L75.6755 71.9228L72.2417 72.2214" stroke="#231F1F" stroke-width="0.0790944"/>
<path d="M76.5381 74.9253L76.422 74.9419L75.5926 75.0082L72.3413 75.2736" stroke="#231F1F" stroke-width="0.0790944"/>
<path d="M76.223 76.1694C76.223 76.1694 75.9576 76.3187 75.5429 76.5343C74.9623 76.8329 74.0997 77.2476 73.2039 77.4798C73.1376 77.4964 73.0712 77.513 73.0049 77.5296" stroke="#231F1F" stroke-width="0.0790944"/>
<path d="M73.0048 77.5297L71.6279 78.1103L70.7156 79.2217" stroke="#231F1F" stroke-width="0.0790944"/>
<path d="M70.7155 79.2216C70.7155 79.2216 66.7178 82.2075 60.7792 80.416C60.7792 80.416 40.0107 89.0917 29.8587 90.7837C29.0957 90.9164 28.3824 90.9993 27.752 91.0491C26.8065 91.0988 25.9107 90.6012 25.4297 89.7386C24.4841 88.0964 23.1737 85.9565 22.3277 81.0464C22.2281 80.4824 22.1286 79.8852 22.0457 79.2548" stroke="#231F1F" stroke-width="0.0790944"/>
<path d="M80.2538 77.7618C79.7064 78.16 78.8107 78.6742 77.7158 78.7405C77.7158 78.7405 74.1825 78.359 73.2038 77.4798C73.1872 77.4633 73.1872 77.4633 73.1707 77.4467" stroke="#231F1F" stroke-width="0.0790944"/>
<path d="M83.1237 67.9914C83.1237 67.9914 84.2849 69.7332 83.8038 71.2261C83.8038 71.2261 83.837 71.2924 83.8536 71.4086C83.9531 72.0389 84.1687 74.129 82.5929 75.0912C82.5929 75.0912 82.626 76.2523 80.8843 77.231C80.8843 77.231 80.6686 77.4633 80.2705 77.7619" stroke="#231F1F" stroke-width="0.0790944"/>
<path d="M77.467 71.2261C77.467 71.2261 79.4079 71.9228 81.2989 71.8233C81.9293 71.7901 82.5265 71.674 83.0739 71.4251" stroke="#231F1F" stroke-width="0.0790944"/>
<path d="M82.5928 75.0912C82.5928 75.0912 77.7822 75.6054 76.3888 74.5769C76.2229 74.4442 76.1068 74.3115 76.057 74.1456C76.057 74.1456 75.9741 72.7688 77.2348 72.7522C78.4955 72.7522 80.1377 72.7356 80.2704 72.52C80.2704 72.52 81.133 72.1219 81.2989 71.8399" stroke="#231F1F" stroke-width="0.0790944"/>
<path d="M80.8842 77.231C80.8179 77.2476 78.7609 76.9988 77.2348 76.4348C76.3059 76.0698 75.576 75.6054 75.5926 75.0082" stroke="#231F1F" stroke-width="0.0790944"/>
<path d="M77.2349 76.4349C77.2349 76.4349 75.9244 76.6173 75.5429 76.5344C75.5263 76.5344 75.4932 76.5344 75.4766 76.5178" stroke="#231F1F" stroke-width="0.0790944"/>
<path d="M80.2705 77.7619C80.2705 77.7619 80.2705 77.7619 80.2539 77.7619C80.1377 78.0605 76.2893 87.5655 71.9929 87.9636" stroke="#231F1F" stroke-width="0.0790944"/>
<path d="M42.9304 20.4329C42.9636 20.0514 43.0134 19.703 43.0631 19.3878C43.1958 18.4257 43.7267 17.5465 44.5561 17.0655C45.6675 16.4019 46.5301 16.883 47.1272 17.5963C47.8737 18.4921 48.1723 19.6864 48.0064 20.8476C47.5254 24.1321 47.5751 25.5089 47.7576 26.0563C48.0064 26.7032 48.4377 26.1061 48.4377 26.1061C48.4377 26.1061 49.5491 21.1959 49.798 20.9471C50.0634 20.7149 56.1678 16.2029 56.1678 16.2029C58.2911 10.7951 68.0284 15.8711 68.8578 16.0536C69.6707 16.2195 69.9858 16.9659 70.0024 17.7622C70.019 17.9115 70.0024 18.0608 69.9858 18.2101C69.9858 18.2101 69.3389 29.1583 64.8435 36.623C63.1183 39.4762 60.149 40.8696 57.0636 40.7369C56.6987 40.7203 56.3171 40.6705 55.9356 40.6042C55.0067 40.4549 54.0777 40.1563 53.182 39.7084C51.2577 38.7629 49.1012 36.2083 47.8074 33.4878" stroke="#231F1F" stroke-width="0.0790944"/>
<path d="M46.364 26.0564C45.6673 26.1559 45.1199 26.0895 44.672 25.9071C42.8805 25.144 42.7644 22.4401 42.9303 20.4495" stroke="#231F1F" stroke-width="0.0790944"/>
<path d="M69.173 9.70035C69.173 9.70035 69.173 9.61741 69.1895 9.46812C69.2393 8.32353 69.372 3.51294 67.5307 3.34706C65.424 3.18118 66.27 5.66941 66.27 5.66941C66.27 5.66941 56.0517 -3.96835 50.9922 2.31859C50.9922 2.31859 43.428 3.24753 42.6981 10.1814C41.9682 16.9162 42.8806 20.2505 42.9304 20.4329C42.9304 20.4495 42.9304 20.4495 42.9304 20.4495" stroke="#231F1F" stroke-width="0.0790944"/>
<path d="M70.0023 17.7622C70.0023 17.7622 74.7797 12.7857 72.0758 8.705C69.7037 5.17171 69.2558 8.52253 69.1895 9.46806" stroke="#231F1F" stroke-width="0.0790944"/>
<path d="M74.9622 68.8043L78.2632 65.8681L79.3912 64.8563" stroke="#231F1F" stroke-width="0.0790944"/>
<path d="M79.3914 64.8562C79.5904 64.6738 79.8724 64.5742 80.1378 64.5908" stroke="#231F1F" stroke-width="0.0790944"/>
<path d="M80.1377 64.5908L85.1308 64.8396" stroke="#231F1F" stroke-width="0.0790944"/>
<path d="M85.1309 64.8396C85.8939 64.8728 86.1593 65.9013 85.5124 66.3326" stroke="#231F1F" stroke-width="0.0790944"/>
<path d="M85.5125 66.3326L83.074 67.9251L81.5977 68.9038" stroke="#231F1F" stroke-width="0.0790944"/>
<path d="M84.8655 65.9842L80.3867 65.8183" stroke="#231F1F" stroke-width="0.0790944"/>
<path d="M80.3865 65.8183C80.1875 65.8183 79.9718 65.8847 79.8225 66.0008" stroke="#231F1F" stroke-width="0.0790944"/>
<path d="M79.8226 66.0008L77.2349 67.9914" stroke="#231F1F" stroke-width="0.0790944"/>
<path d="M69.4051 67.5104L66.7178 54.1734" stroke="#231F1F" stroke-width="0.0790944"/>
<path d="M44.191 26.1061C44.1413 27.4995 44.0085 28.893 43.7929 30.2698C43.5607 31.6798 43.2787 34.1846 41.8521 34.9808C41.0558 35.4287 40.1767 35.7605 39.3472 36.1586C37.5723 37.0378 35.7974 37.9667 34.0722 38.962C30.4062 41.0687 26.3587 43.4906 23.8207 46.941C22.6429 48.5334 22.2116 50.4908 21.7305 52.3653C21.0007 55.2848 20.4367 58.2375 20.022 61.2068C19.4745 65.0056 19.1428 68.854 19.093 72.6859C19.0598 74.7263 19.1262 76.7666 19.2921 78.7904C19.3418 79.4705 19.3087 80.2336 19.8063 80.7644C20.3371 81.3118 21.3324 81.544 22.0457 81.6436C22.5268 81.7099 22.7424 80.98 22.2614 80.8971C21.8301 80.8473 21.432 80.7312 21.0172 80.5819C20.3703 80.3331 20.1878 80.0511 20.1049 79.371C20.022 78.4918 19.9722 77.6126 19.9224 76.7168C19.8561 74.9751 19.8395 73.2333 19.8892 71.4916C19.9888 68.0246 20.304 64.5743 20.8016 61.1405C21.2163 58.2541 21.7637 55.3844 22.477 52.5644C22.9581 50.6567 23.406 48.6993 24.6501 47.1068C27.3042 43.7394 31.3517 41.3673 35.0509 39.2938C36.6765 38.3814 38.3354 37.5023 40.0274 36.6894C40.7573 36.3245 41.5369 36.0259 42.2502 35.6444C43.8261 34.7818 44.2076 32.3101 44.4896 30.7342C44.755 29.2081 44.9209 27.6488 44.9541 26.1061C44.9707 25.6085 44.2076 25.6085 44.191 26.1061Z" fill="#1D1819"/>
<path d="M21.4155 80.051C23.008 79.3377 24.9654 79.205 26.674 79.0391C28.8636 78.8069 31.0533 78.6742 33.2595 78.5747C35.9634 78.4586 38.5512 78.4088 41.2219 77.9609C45.7836 77.1647 50.3122 76.0864 54.8242 74.9916C55.6868 74.7926 56.5494 74.5769 57.412 74.3613C57.9926 74.212 58.6395 74.129 59.2035 73.8968C59.9002 73.5816 60.2486 72.8186 60.6965 72.238C60.6135 72.3375 60.9121 71.9394 60.9785 71.873C61.2439 71.5247 61.5259 71.1763 61.7913 70.8446C62.3387 70.1478 62.8529 69.4346 63.4335 68.771C64.097 68.0246 64.8103 68.1075 65.7061 68.1075C66.7014 68.1075 67.7133 68.1075 68.7252 68.1075C69.5878 68.1075 69.737 68.1241 70.0688 69.1857C70.2015 69.6502 70.948 69.4511 70.8153 68.9701C70.583 68.2236 70.2513 67.3942 69.3721 67.3278C69.1233 67.2947 69.3555 67.3444 69.0238 67.3278C68.6256 67.3278 68.2275 67.3278 67.8128 67.3278C66.2867 67.3278 64.0473 66.8966 62.9193 68.1738C61.9406 69.2853 61.0448 70.5128 60.149 71.6906C59.7178 72.2546 59.4026 72.9844 58.7059 73.2333C58.1253 73.4489 57.4783 73.5484 56.8812 73.6977C52.3858 74.8091 47.8738 75.8874 43.3286 76.7831C41.4375 77.1481 39.5133 77.5628 37.5725 77.6623C36.544 77.7287 35.4989 77.7121 34.4539 77.7619C31.9822 77.8448 29.5106 77.9775 27.0555 78.2263C25.0649 78.4254 22.8753 78.5581 21.034 79.3875C20.5695 79.5866 20.9676 80.2501 21.4155 80.051Z" fill="#1D1819"/>
<path d="M35.8638 51.4197C36.2121 58.9508 36.5605 66.4653 36.7927 73.9963C36.8425 75.34 36.9586 76.7168 36.8757 78.0605C36.8425 78.5581 37.6221 78.5581 37.6553 78.0605C37.7051 76.9491 37.6221 75.8211 37.589 74.7096C37.5226 72.5532 37.4397 70.4133 37.3567 68.2734C37.1743 63.6785 36.9752 59.1001 36.7761 54.5052C36.7264 53.4767 36.6766 52.4482 36.6434 51.4197C36.6103 50.9221 35.8472 50.9221 35.8638 51.4197Z" fill="#1D1819"/>
<path d="M56.8646 41.3507C58.6063 41.9147 60.2983 42.6611 61.924 43.4905C64.2629 44.7015 67.1161 46.294 68.1114 48.8817C68.974 51.1377 69.5546 53.5264 70.1683 55.8654C70.9148 58.6688 71.6115 61.5054 72.2916 64.342C72.6897 65.951 73.0713 67.5767 73.4528 69.2023C73.5689 69.6834 74.2988 69.4843 74.1993 69.0033C73.204 64.6571 72.1423 60.3276 71.0143 56.0313C70.3674 53.5928 69.7536 51.1045 68.8744 48.7324C67.9123 46.1778 65.4573 44.5522 63.1681 43.2915C61.2273 42.2132 59.1703 41.3009 57.0636 40.6042C56.5992 40.4383 56.3835 41.1848 56.8646 41.3507Z" fill="#1D1819"/>
<path d="M40.9729 35.8434C43.0298 39.1278 46.6792 41.981 50.6106 42.3625C52.4851 42.545 54.3264 42.0971 56.0018 41.3009C56.4663 41.1018 56.0682 40.4383 55.6203 40.6374C52.1368 42.2796 48.4542 41.699 45.4185 39.443C43.9588 38.3648 42.5985 36.9879 41.6364 35.4452C41.371 35.0305 40.7075 35.4121 40.9729 35.8434Z" fill="#1D1819"/>
<path d="M29.3777 90.9827C29.3279 95.2459 29.2616 99.5256 29.1952 103.789L29.0625 112H29.8421L30.091 95.6606C30.1076 94.1013 30.1407 92.542 30.1573 90.9827C30.1573 90.485 29.3943 90.485 29.3777 90.9827ZM74.8626 112C74.2323 105.083 73.519 98.1488 72.673 91.2481C72.1919 87.2669 71.6611 83.2857 70.9976 79.3212C70.9146 78.8401 70.1682 79.0392 70.2511 79.5368C72.0592 90.2694 73.154 101.151 74.083 112H74.8626Z" fill="#1D1819"/>
<path d="M78.2632 65.6359C77.7822 65.2709 77.0855 65.0885 76.4883 65.1051C75.3105 65.1548 74.3982 66.0174 73.9005 67.0293C73.5688 67.6928 73.3199 68.4559 73.4526 69.2024C73.4858 69.418 73.7346 69.5175 73.9171 69.4678C74.1328 69.418 74.2323 69.2024 74.1991 69.0033C74.0996 68.5056 74.3318 67.9251 74.5309 67.4938C74.7299 67.0791 74.9788 66.6975 75.3105 66.3824C75.493 66.2331 75.7086 66.0838 75.9077 66.0008C76.0902 65.9345 76.2892 65.8847 76.4551 65.8847C76.538 65.8681 76.6376 65.8681 76.7371 65.8847C76.7537 65.8847 76.8698 65.9013 76.8532 65.8847C76.82 65.8847 76.9528 65.9179 76.9693 65.9179C77.1352 65.9511 77.2845 66.0008 77.4504 66.0672C77.4836 66.0838 77.4172 66.0506 77.4172 66.0506C77.4504 66.0672 77.467 66.0672 77.5002 66.0838C77.5168 66.1004 77.5499 66.1169 77.5831 66.1335C77.6329 66.1501 77.6826 66.1833 77.749 66.2165C77.7822 66.2331 77.8319 66.2662 77.8817 66.2994C78.0476 66.4155 78.313 66.3326 78.4125 66.1667C78.5286 65.9676 78.4457 65.752 78.2632 65.6359Z" fill="#1D1819"/>
<path d="M66.0711 69.6502C66.436 69.7995 67.0498 69.6834 67.4313 69.6668C68.4266 69.6502 69.4219 69.617 70.4172 69.5673C72.3746 69.5009 74.332 69.4346 76.2894 69.3184C76.9364 69.2853 77.5667 69.1194 78.1971 69.0033C78.5952 68.9203 81.382 68.3231 81.0834 69.2853C80.8844 69.9156 79.7398 70.1313 79.1924 70.3137C78.4127 70.5791 77.6331 70.9109 76.8534 71.2095C76.4387 71.3754 76.0074 71.5578 75.5761 71.7071C75.3771 71.7901 75.6425 71.7237 75.4932 71.7403C75.3273 71.7735 75.1448 71.7735 74.9789 71.7901C74.0334 71.873 73.0879 71.956 72.1424 72.0389C71.6447 72.0721 71.6447 72.8517 72.1424 72.802C73.0713 72.719 74.0002 72.6527 74.9126 72.5697C75.5761 72.52 76.0406 72.3541 76.6709 72.1053C77.5833 71.7569 78.4791 71.3588 79.408 71.0602C80.1213 70.8114 80.9175 70.6123 81.465 70.0317C82.1617 69.335 81.9294 68.3066 80.9673 68.0577C79.8393 67.7591 78.5122 68.1407 77.4174 68.3729C75.7586 68.7213 74.0002 68.6549 72.3082 68.7213C70.9646 68.7876 69.6044 68.8374 68.2607 68.8706C67.7797 68.8871 67.3152 68.9037 66.8507 68.9037C66.7014 68.9037 66.5355 68.9203 66.3862 68.9037C66.3033 68.9037 66.154 68.8706 66.2701 68.9037C65.8222 68.7213 65.6232 69.4677 66.0711 69.6502Z" fill="#1D1819"/>
<path d="M76.4387 74.7428C75.2278 74.8423 74.0002 74.9419 72.7727 75.0414C72.6068 75.058 72.4244 75.0746 72.2419 75.0746C72.0428 75.0912 71.8604 75.2405 71.8604 75.4727C71.8604 75.6718 72.0428 75.8708 72.2419 75.8542C73.4694 75.7547 74.6969 75.6552 75.9079 75.5556C76.0904 75.539 76.2728 75.5225 76.4387 75.5059C76.6544 75.4893 76.8368 75.3566 76.8368 75.1243C76.8368 74.9253 76.6544 74.7262 76.4387 74.7428Z" fill="#1D1819"/>
<path d="M75.941 76.0367C74.8959 76.6671 73.7679 76.9988 72.6399 77.4301C71.8934 77.7121 71.3626 77.9112 70.8484 78.5249C70.4171 79.0558 70.4171 79.1387 69.8033 79.4871C68.891 79.9847 67.9123 80.3331 66.9004 80.5487C65.2416 80.9136 63.4998 80.8805 61.841 80.5155C61.277 80.3994 60.8623 80.1506 60.3314 80.3496C59.303 80.7312 58.3077 81.1791 57.2958 81.5772C53.1487 83.236 48.9851 84.8285 44.7717 86.2882C40.2099 87.8807 35.5818 89.4566 30.8375 90.4021C29.8588 90.6012 28.847 90.7836 27.8351 90.85C26.226 90.9495 25.5791 89.6722 24.9321 88.4613C23.4392 85.6413 22.7425 82.4895 22.3112 79.3543C22.2448 78.8567 21.4984 79.0723 21.5647 79.5534C21.9794 82.5227 22.6264 85.492 23.9368 88.2125C24.335 89.0087 24.7497 89.9376 25.3302 90.6178C26.1762 91.6131 27.3208 91.696 28.5152 91.5467C33.1433 91.0159 37.6719 89.4898 42.0678 88.03C46.7457 86.4707 51.3738 84.7455 55.9687 82.9374C57.329 82.4066 58.6726 81.8592 60.0328 81.2952C60.2319 81.2122 60.5471 81.0132 60.7627 80.9966C60.8125 80.9966 60.9784 81.0961 61.0281 81.1127C61.4594 81.2454 61.9073 81.3283 62.3552 81.3947C63.2676 81.544 64.1799 81.6103 65.1089 81.5606C66.9336 81.4611 69.3554 80.9966 70.8152 79.7691C71.1304 79.4871 71.429 79.0889 71.6778 78.7406C71.8271 78.5083 71.5119 78.724 71.91 78.5747C72.1423 78.4752 72.3745 78.3756 72.6067 78.2761C73.8674 77.7453 75.1447 77.4135 76.3225 76.7002C76.7538 76.4348 76.3557 75.7713 75.941 76.0367Z" fill="#1D1819"/>
<path d="M82.6925 68.3895C82.9911 68.854 83.2067 69.3682 83.3394 69.899C83.4555 70.3635 83.4389 70.7782 83.356 71.2593C83.3394 71.4252 83.3394 71.5247 83.3726 71.6906C83.4389 72.1551 83.4721 72.6361 83.4058 73.1006C83.356 73.4489 83.2565 73.7973 83.1072 74.0959C82.8915 74.494 82.6261 74.6931 82.2944 74.9585C82.0289 75.2073 82.0953 75.5722 81.9128 75.8874C81.5645 76.5178 80.9673 76.7998 80.4365 77.2311C79.5573 77.9775 78.4625 78.6742 77.2681 78.5083C76.588 78.4254 75.9245 78.3093 75.2609 78.1434C74.6306 77.9941 73.8344 77.8282 73.3367 77.3803C72.9718 77.032 72.4244 77.5794 72.7893 77.9278C73.5855 78.6576 74.8462 78.8733 75.8747 79.0723C76.8037 79.2382 77.6662 79.4207 78.5952 79.1553C79.69 78.8567 80.4697 78.1434 81.382 77.5131C82.0787 77.0486 82.8915 76.2192 82.8749 75.2902C82.8252 75.4063 82.7588 75.5225 82.6925 75.6386C84.0361 74.776 84.3679 73.1503 84.1357 71.6574C84.1357 71.5911 84.1025 71.4915 84.1025 71.4252C84.1025 71.3256 84.1357 71.3422 84.1191 71.392C84.202 70.8778 84.2352 70.4133 84.1357 69.899C84.0029 69.2355 83.7209 68.572 83.356 68.008C83.074 67.5933 82.4105 67.9748 82.6925 68.3895Z" fill="#1D1819"/>
<path d="M77.268 71.8067C77.9316 72.0389 78.6448 72.2048 79.3581 72.3043C80.6354 72.5034 81.9791 72.5034 83.1734 71.956C83.6213 71.7569 83.2232 71.0934 82.7753 71.2925C81.7303 71.7735 80.453 71.7072 79.3416 71.5247C78.7112 71.4252 78.0808 71.2759 77.4671 71.0602C77.0026 70.8943 76.8036 71.6408 77.268 71.8067Z" fill="#1D1819"/>
<path d="M82.4932 74.9087C81.0334 75.0746 79.5073 75.1409 78.0476 74.9419C77.6329 74.8755 77.1684 74.7926 76.8034 74.6267C76.6541 74.5603 76.5214 74.4774 76.4385 74.411C76.3887 74.3447 76.3887 74.3447 76.3556 74.3115L76.3058 74.2286C76.5049 74.1788 76.3058 74.4276 76.339 74.3115C76.3721 74.212 76.339 74.0959 76.3556 74.0295C76.4053 73.847 76.4551 73.6812 76.5878 73.5484C76.7703 73.366 77.0025 73.3494 77.2347 73.3494C77.6329 73.3494 78.0476 73.3494 78.4623 73.3328C78.8438 73.3162 79.2253 73.3162 79.6069 73.2664C79.8391 73.2333 80.1211 73.2167 80.3367 73.084C80.4197 73.0342 80.4031 73.001 80.486 72.9347C80.204 73.1503 80.3865 73.0342 80.4363 73.0176C80.5524 72.9844 80.6851 72.9015 80.7846 72.8352C81.0666 72.6859 81.3486 72.5034 81.5477 72.238C81.8297 71.8399 81.1662 71.4583 80.8842 71.8399C80.7349 72.0223 80.4363 72.155 80.2372 72.2546C80.1709 72.3043 80.0713 72.3375 79.9884 72.3873C79.9552 72.4039 79.9884 72.3873 79.9054 72.4536C79.8059 72.5532 79.8225 72.5532 79.922 72.437C79.9552 72.4204 79.9552 72.4204 79.9054 72.437C79.8391 72.4204 79.6898 72.4868 79.6069 72.4868C79.441 72.52 79.2917 72.52 79.1258 72.5366C78.6945 72.5532 78.2632 72.5697 77.8485 72.5697C77.1684 72.5863 76.4551 72.52 75.974 73.084C75.7086 73.3992 75.5759 73.847 75.5593 74.2452C75.5593 75.058 76.6044 75.4229 77.2513 75.5722C78.2798 75.8044 79.358 75.821 80.4031 75.8044C81.0998 75.7879 81.7965 75.7547 82.4932 75.6883C82.9909 75.6386 82.9909 74.8589 82.4932 74.9087Z" fill="#1D1819"/>
<path d="M80.6852 77.0652C80.8676 77.032 80.6852 77.0486 80.6188 77.032C80.569 77.032 80.5027 77.032 80.4529 77.0154C80.3534 76.9988 80.5027 77.032 80.4363 77.0154C80.3866 77.0154 80.3534 76.9988 80.3036 76.9988C79.8889 76.9325 79.4908 76.8661 79.0761 76.7832C78.1637 76.5841 77.185 76.3519 76.3888 75.8542C76.2229 75.7381 76.1234 75.6718 75.9741 75.5059C76.0239 75.5557 75.9575 75.4561 75.9409 75.4395C75.9243 75.423 75.9243 75.4064 75.9077 75.3898C75.8746 75.3234 75.9243 75.423 75.9077 75.3898C75.8912 75.34 75.8912 75.3068 75.8746 75.2737C75.858 75.2239 75.8746 75.2902 75.8746 75.2902C75.8746 75.2737 75.8746 75.2405 75.8746 75.2073C75.8912 74.7097 75.1115 74.7097 75.1115 75.2073C75.0949 76.2026 76.2395 76.7002 77.0192 76.9988C77.9813 77.3638 78.9932 77.5794 80.005 77.7287C80.287 77.7619 80.6022 77.8614 80.8842 77.8117C81.3653 77.7287 81.1662 76.9822 80.6852 77.0652Z" fill="#1D1819"/>
<path d="M77.0358 76.2523C77.0026 76.2523 76.986 76.2689 76.9695 76.2689C76.9197 76.2689 77.1022 76.2523 77.0192 76.2523C77.0192 76.2523 77.0026 76.2689 76.986 76.2689C76.9529 76.2689 76.9197 76.2689 76.8865 76.2689C76.704 76.3021 76.5382 76.3187 76.3557 76.3353C76.1566 76.3519 75.9742 76.3685 75.7751 76.3685C75.6922 76.3685 75.6258 76.3851 75.5429 76.3685C75.5263 76.3685 75.5097 76.3685 75.4931 76.3685C75.4433 76.3685 75.6258 76.3851 75.5429 76.3685C75.5097 76.3685 75.4268 76.3353 75.576 76.4016C75.3936 76.3187 75.1448 76.3353 75.0452 76.5343C74.9623 76.7002 74.9955 76.9656 75.1779 77.0652C75.4599 77.1813 75.7751 77.1481 76.0571 77.1315C76.3557 77.1149 76.6543 77.0818 76.9529 77.032C77.0358 77.032 77.1353 77.0154 77.2349 76.9988C77.3178 76.9822 77.4173 76.8993 77.4671 76.8163C77.5169 76.7334 77.5335 76.6173 77.5003 76.5343C77.4339 76.3021 77.2349 76.2192 77.0358 76.2523Z" fill="#1D1819"/>
<path d="M79.8061 77.8614C79.69 78.1434 79.5573 78.4088 79.408 78.7572C79.0762 79.5036 78.6947 80.2667 78.3132 80.9966C77.3013 82.9042 76.1401 84.8119 74.5642 86.3048C73.8343 87.0015 72.9386 87.6651 71.8935 87.7812C71.4125 87.8309 71.4125 88.594 71.8935 88.5442C74.0168 88.3286 75.5927 86.5371 76.787 84.928C78.0477 83.2194 79.0762 81.3283 79.972 79.3875C80.171 78.9562 80.3701 78.5083 80.536 78.0605C80.735 77.596 79.9886 77.3969 79.8061 77.8614Z" fill="#1D1819"/>
<path d="M46.2646 25.8905C44.4067 26.1061 43.4943 24.9615 43.2455 23.2364C43.0464 21.8098 43.0133 19.7031 43.7763 18.4424C44.1247 17.8784 44.7882 17.3309 45.4849 17.3475C46.2314 17.3475 46.812 18.0608 47.1437 18.658C47.8239 19.9519 47.4589 21.3453 47.3096 22.6889C47.1769 23.7838 46.8451 25.426 47.3428 26.4877C47.5419 26.8858 47.94 27.0682 48.3547 26.8194C48.703 26.6204 48.7528 26.3052 48.8357 25.9402C49.1343 24.5966 49.4329 23.2364 49.831 21.9093C50.0633 21.1462 50.76 20.8311 51.4401 20.3168C52.6179 19.4542 53.779 18.5751 54.9568 17.7125C55.3383 17.4305 55.7199 17.1651 56.0848 16.8831C56.4332 16.6177 56.5161 16.2859 56.7483 15.9209C58.4403 13.2337 62.6372 14.428 65.0424 15.2242C66.1207 15.5892 67.1657 16.0371 68.2274 16.4684C68.808 16.7006 69.3554 16.8665 69.4881 17.5964C69.571 17.9613 69.5213 18.3428 69.4881 18.7078C69.2559 21.6273 68.7416 24.5468 68.0283 27.3834C67.4809 29.5731 66.8008 31.7461 65.8719 33.8197C64.9595 35.86 63.8813 37.9501 61.957 39.2108C60.1489 40.4052 57.9261 40.8033 55.8028 40.4218C53.4473 39.9905 51.6557 38.7132 50.1628 36.8719C49.3168 35.8434 48.6201 34.6988 48.0395 33.4879C47.8239 33.04 47.1603 33.4381 47.376 33.886C48.4874 36.1586 50.0799 38.4644 52.2363 39.8744C54.0113 41.0355 56.3502 41.5166 58.4569 41.2678C60.5802 41.0355 62.5708 40.0402 63.9974 38.4644C65.5401 36.7558 66.5022 34.4666 67.2984 32.3433C68.7748 28.4782 69.6208 24.3975 70.1019 20.3168C70.2014 19.4874 70.3673 18.5585 70.2843 17.7291C70.1516 16.2527 69.0734 15.9873 67.9122 15.5062C65.1917 14.3782 61.9736 13.0844 58.9546 13.6484C57.3953 13.9469 56.5327 14.8261 55.7696 16.1366C55.8526 16.0039 55.836 16.1034 55.7033 16.2195C55.5208 16.3522 55.3217 16.4849 55.1393 16.6177C54.5421 17.0655 53.9449 17.4968 53.3477 17.9447C52.1866 18.8073 51.0254 19.6699 49.8642 20.5491C49.068 21.1628 48.9684 22.0752 48.7196 23.0373C48.5371 23.8169 48.3547 24.5966 48.1722 25.3762C48.1224 25.5919 48.0395 25.8407 48.0063 26.0729C47.9897 26.3052 48.0395 26.0895 48.0561 26.0729C47.94 26.2388 47.9731 26.1559 47.9731 26.1725C47.9897 26.1061 48.0229 26.3218 48.0395 26.1393C48.0561 26.0066 47.9566 25.7578 47.94 25.6085C47.7409 23.5018 48.7196 21.2955 48.1722 19.222C47.6248 17.1319 45.4351 15.6224 43.6104 17.4305C42.4161 18.6248 42.3497 20.6486 42.3995 22.2577C42.4327 23.6677 42.7147 25.3928 43.992 26.2388C44.6721 26.6867 45.4683 26.7531 46.2646 26.6535C46.7456 26.5872 46.7456 25.8241 46.2646 25.8905Z" fill="#1D1819"/>
<path d="M70.1849 18.2267C72.3414 15.9707 74.1661 12.2715 72.5902 9.21927C72.1424 8.3235 70.5831 6.01774 69.4053 7.32821C68.8247 7.97515 68.7086 9.06997 68.6754 9.91598C68.6588 10.4136 69.4219 10.397 69.4551 9.91598C69.5878 8.07468 69.7205 5.47033 68.6091 3.89444C68.0285 3.09821 66.718 2.8328 66.0047 3.64562C65.4739 4.25939 65.5568 5.25468 65.8057 5.98456C66.0213 5.85186 66.2369 5.73574 66.436 5.60303C64.9928 4.2428 63.334 3.03186 61.6088 2.03656C59.0874 0.576797 55.7864 -0.750262 52.9 0.493856C52.1867 0.792444 51.5398 1.25691 51.0089 1.82091C50.9592 1.85409 50.644 2.31856 50.8928 2.13609C50.8596 2.15268 50.7933 2.13609 50.7601 2.15268C50.6772 2.18586 50.5611 2.18586 50.4781 2.20244C49.5326 2.36833 48.6202 2.6835 47.7411 3.06503C44.6722 4.42527 42.5987 7.02962 42.2006 10.3804C41.902 12.935 41.8191 15.556 42.0513 18.1106C42.1342 18.9897 42.2172 19.9021 42.466 20.7481C42.5987 21.2292 43.3452 21.0301 43.2125 20.549C42.5489 18.2764 42.6319 15.6555 42.748 13.3166C42.8475 11.1601 42.9471 8.90409 44.1248 7.02962C44.9211 5.75233 46.0988 4.77362 47.4093 4.07692C48.3216 3.61244 49.2838 3.2475 50.2791 3.03186C50.5113 2.98209 50.7435 2.9655 50.9592 2.89915C50.8265 2.93233 51.1416 2.79962 51.2246 2.71668C51.5398 2.46786 51.772 2.1195 52.0706 1.87068C54.5754 -0.136497 58.0258 0.991503 60.5472 2.33515C62.4714 3.36362 64.3127 4.6575 65.9052 6.15045C66.1706 6.39927 66.6682 6.15045 66.5355 5.76892C66.3862 5.30445 66.2038 4.45845 66.6351 4.0935C67.6138 3.26409 68.2607 4.79021 68.4266 5.47033C68.7915 6.88033 68.7915 8.45621 68.6754 9.91598C68.9408 9.91598 69.1897 9.91598 69.4551 9.91598C69.4717 9.30221 69.538 8.55574 69.8532 8.02492C70.6162 6.74762 72.2087 10.1648 72.3248 10.7454C72.8391 13.217 71.2964 15.9375 69.6375 17.6793C69.2892 18.0442 69.8366 18.5916 70.1849 18.2267Z" fill="#1D1819"/>
<path d="M75.1448 69.2687C75.9742 68.5388 76.8036 67.8089 77.633 67.0625C78.1307 66.6146 78.6449 66.1501 79.1592 65.7022C79.4578 65.4368 79.6568 65.188 80.1047 65.188C81.3986 65.188 82.7091 65.3207 84.0029 65.3871C84.3181 65.3871 84.8489 65.3207 85.1641 65.47C85.8774 65.8018 85.0148 66.3326 84.7162 66.5317C83.5882 67.2781 82.4436 68.0246 81.3156 68.7711C80.9009 69.0365 81.2825 69.7166 81.6972 69.4346C82.8086 68.7047 83.9366 67.9748 85.048 67.2284C85.5125 66.9298 86.0433 66.6644 86.1594 66.0506C86.2755 65.2544 85.6618 64.7069 84.9319 64.6572C83.5053 64.5577 82.0621 64.5079 80.6355 64.4415C80.0383 64.4084 79.5075 64.3752 79.0099 64.7899C78.6449 65.1051 78.2966 65.4368 77.9316 65.7686C76.8202 66.7473 75.7088 67.7426 74.5974 68.7379C74.2325 69.0697 74.7799 69.6005 75.1448 69.2687Z" fill="#1D1819"/>
<path d="M84.766 65.8018C83.5717 65.752 82.3939 65.7188 81.2161 65.669C80.7517 65.6525 80.1711 65.5529 79.7398 65.752C79.2587 65.9842 78.8274 66.4155 78.4127 66.7307C77.9151 67.1122 77.434 67.4938 76.9364 67.8753C76.5548 68.1739 76.9364 68.8374 77.3179 68.5388C78.1805 67.8753 79.0099 67.1952 79.8891 66.5648C80.2208 66.3326 80.7019 66.4321 81.0834 66.4487C81.7967 66.4653 82.51 66.4985 83.2233 66.515C83.7375 66.5316 84.2518 66.5482 84.766 66.5648C85.2637 66.598 85.2637 65.8183 84.766 65.8018Z" fill="#1D1819"/>
<path d="M69.6705 67.6099C68.8909 63.7282 68.1112 59.83 67.315 55.9317C67.2155 55.3843 67.0994 54.8369 66.9832 54.2729C66.8837 53.7919 66.1538 53.9909 66.2368 54.472C67.033 58.3702 67.8127 62.2684 68.5923 66.1501C68.7084 66.7141 68.8245 67.2615 68.9241 67.8255C69.0236 68.3066 69.7701 68.1075 69.6705 67.6099Z" fill="#1D1819"/>
<path d="M19.5244 16.2361C20.951 19.5703 24.7995 21.1296 28.1337 19.703C31.4679 18.293 33.0106 14.4279 31.6006 11.0937C30.174 7.75947 26.3256 6.21677 22.9913 7.62677C19.6571 9.05335 18.0978 12.9018 19.5244 16.2361Z" fill="#EC2029" stroke="#1D1819" stroke-width="0.352675"/>
<path d="M22.7757 12.0227C23.1738 12.9516 24.2521 13.3995 25.181 13.0014C26.11 12.6033 26.5412 11.525 26.1431 10.5961C25.745 9.66715 24.6668 9.23586 23.7378 9.63398C22.8089 10.0321 22.3776 11.0937 22.7757 12.0227ZM29.4276 16.7006L28.5982 14.7597C28.1005 13.582 26.7237 13.018 25.546 13.5322C24.3682 14.0299 23.8208 15.3901 24.3184 16.5844L25.1478 18.5253C25.9275 18.5584 26.7237 18.4257 27.5034 18.1106C28.2664 17.7788 28.9134 17.2977 29.4276 16.7006Z" fill="white" stroke="#1D1819" stroke-width="0.352675"/>
<path d="M80.6355 43.2749L80.5691 43.0925V43.0759C79.0928 39.4928 79.1923 35.6278 80.5359 32.2769C81.9128 28.8597 84.5835 25.9734 88.2329 24.4141L88.4319 24.3477C92.0316 22.8714 95.8801 22.9709 99.2309 24.3146C102.648 25.6914 105.534 28.3621 107.094 32.0115L107.177 32.2106C108.636 35.8102 108.553 39.6587 107.193 43.0095C105.816 46.4267 103.146 49.313 99.4963 50.8723L99.3138 50.9553H99.2972C95.7142 52.415 91.8491 52.3321 88.4983 50.9719C85.0811 49.595 82.1948 46.9243 80.6355 43.2749ZM82.4602 42.5119C83.8038 45.6636 86.292 47.9694 89.2282 49.1472C92.1809 50.3415 95.5815 50.4079 98.7332 49.0642L98.7498 49.0476C101.885 47.704 104.191 45.2158 105.369 42.2796C106.563 39.3269 106.629 35.9429 105.286 32.7912L105.269 32.7746C103.925 29.6228 101.437 27.317 98.501 26.1393C95.5483 24.9449 92.1643 24.8786 89.0125 26.2222L88.9959 26.2388C85.8442 27.5825 83.5384 30.0707 82.3606 33.0068C81.1663 35.9595 81.0999 39.3601 82.4436 42.5119H82.4602Z" fill="#EC2029" stroke="#1D1819" stroke-width="0.352675"/>
<path d="M102.565 38.3482C102.549 38.4975 102.549 38.5638 102.532 38.6136C102.499 39.0283 102.267 39.2605 101.918 39.2439C101.537 39.2274 101.371 38.9619 101.354 38.5307C101.338 37.8008 101.371 37.0543 101.255 36.341C100.657 32.957 97.9038 30.3858 94.5032 29.9379C93.9724 29.8716 93.7568 29.6559 93.8065 29.2578C93.8563 28.8763 94.1383 28.6938 94.6525 28.7768C99.4133 29.4403 102.565 33.4381 102.565 37.7012C102.565 37.9501 102.565 38.1989 102.565 38.3482Z" fill="#EC2029" stroke="#1D1819" stroke-width="0.352675"/>
<path d="M94.2544 31.7958C97.4393 32.2105 99.7451 35.0305 99.5294 38.2321C99.4963 38.7131 99.264 38.9454 98.8825 38.9288C98.501 38.8956 98.3185 38.6468 98.3517 38.1823C98.501 35.5116 96.7426 33.3385 94.1051 32.9404C93.624 32.8741 93.4416 32.6584 93.4913 32.2769C93.5411 31.912 93.8231 31.7295 94.2544 31.7958Z" fill="#EC2029" stroke="#1D1819" stroke-width="0.352675"/>
<path d="M96.4772 37.9667C96.444 38.4146 96.2449 38.6302 95.88 38.6137C95.4984 38.5971 95.3326 38.3814 95.3326 37.9501C95.3492 36.8719 94.8017 36.2084 93.6903 35.943C93.2259 35.8434 92.9936 35.4287 93.2424 35.097C93.3752 34.9311 93.6572 34.815 93.8728 34.8315C95.3989 34.9477 96.6099 36.4074 96.4772 37.9667Z" fill="#EC2029" stroke="#1D1819" stroke-width="0.352675"/>
<path fill-rule="evenodd" clip-rule="evenodd" d="M85.4293 37.3197C86.3085 40.3885 88.1498 42.8104 90.638 44.7347C91.7826 45.6304 93.0433 46.2939 94.868 46.5096C95.5482 46.6091 96.4439 46.3769 97.2568 45.7134C97.6549 45.3982 97.7212 45.0498 97.5388 44.6185C97.1904 43.7228 96.643 42.9763 95.8799 42.4123C95.1666 41.8981 95.0505 41.9312 94.5031 42.5616C93.8064 43.3744 92.9604 43.391 92.2969 42.5782C91.0528 41.0521 89.792 39.5094 88.5645 37.9501C88.382 37.7344 88.2493 37.4524 88.1996 37.187C88.0835 36.5401 88.4484 36.0258 89.2612 35.7107C89.6593 35.5448 89.7423 35.3291 89.6096 34.9476C89.2446 33.803 88.5313 32.9072 87.4531 32.3266C87.2706 32.2271 86.9223 32.2271 86.7398 32.3266C86.0929 32.7082 85.6284 33.2722 85.3962 34.0021C85.0478 35.1135 85.1308 36.2249 85.4293 37.3197Z" fill="#EC2029" stroke="#1D1819" stroke-width="0.352675"/>
</svg>
