<svg width="32" height="32" viewBox="0 0 32 32" fill="none" xmlns="http://www.w3.org/2000/svg">
    <defs>
        <linearGradient id="paint0_linear_404_6803" x1="20.5718" y1="26.7614" x2="30.7674" y2="26.7614" gradientUnits="userSpaceOnUse">
            <stop stop-color="#E52D27"/>
            <stop offset="1" stop-color="#B31217"/>
        </linearGradient>
        <linearGradient id="paint1_linear_404_6803" x1="24.05" y1="16.0002" x2="32" y2="16.0002" gradientUnits="userSpaceOnUse">
            <stop stop-color="#E52D27"/>
            <stop offset="1" stop-color="#B31217"/>
        </linearGradient>
        <linearGradient id="paint2_linear_404_6803" x1="20.5654" y1="5.23885" x2="30.761" y2="5.23885" gradientUnits="userSpaceOnUse">
            <stop stop-color="#E52D27"/>
            <stop offset="1" stop-color="#B31217"/>
        </linearGradient>
        <linearGradient id="paint3_linear_404_6803" x1="10.2925" y1="27.0968" x2="21.7141" y2="27.0968" gradientUnits="userSpaceOnUse">
            <stop stop-color="#E52D27"/>
            <stop offset="1" stop-color="#B31217"/>
        </linearGradient>
        <linearGradient id="paint4_linear_404_6803" x1="9.80859" y1="16" x2="22.1917" y2="16" gradientUnits="userSpaceOnUse">
            <stop stop-color="#E52D27"/>
            <stop offset="1" stop-color="#B31217"/>
        </linearGradient>
        <linearGradient id="paint5_linear_404_6803" x1="10.2925" y1="4.90323" x2="21.7141" y2="4.90323" gradientUnits="userSpaceOnUse">
            <stop stop-color="#E52D27"/>
            <stop offset="1" stop-color="#B31217"/>
        </linearGradient>
    </defs>
<path d="M20.5718 31.3292C25.1792 29.9614 28.9218 26.5743 30.7674 22.1937H23.7982C23.2304 25.8647 22.1463 29.1485 20.5718 31.3292Z" fill="url(#paint0_linear_404_6803)"/>
<path d="M31.4515 11.8711H24.05C24.1856 13.226 24.263 14.6131 24.263 16.0002C24.263 17.3873 24.1856 18.7744 24.05 20.1292H31.4451C31.8 18.8066 32 17.4324 32 16.0002C32 14.5679 31.8 13.1937 31.4515 11.8711Z" fill="url(#paint1_linear_404_6803)"/>
<path d="M30.761 9.8066C28.9155 5.42595 25.1793 2.03885 20.5654 0.671112C22.1399 2.85176 23.224 6.13563 23.7919 9.8066H30.761Z" fill="url(#paint2_linear_404_6803)"/>
<path d="M10.2925 22.1935C11.2282 27.9548 13.435 32 16.0033 32C18.5716 32 20.7785 27.9548 21.7141 22.1935H10.2925Z" fill="url(#paint3_linear_404_6803)"/>
<path d="M9.80859 16C9.80859 17.4323 9.88603 18.8065 10.0215 20.129H21.9788C22.1143 18.8065 22.1917 17.4323 22.1917 16C22.1917 14.5677 22.1143 13.1936 21.9788 11.871H10.0215C9.88603 13.1936 9.80859 14.5677 9.80859 16Z" fill="url(#paint4_linear_404_6803)"/>
<path d="M21.7141 9.80645C20.7785 4.04516 18.5716 0 16.0033 0C13.435 0 11.2282 4.04516 10.2925 9.80645H21.7141Z" fill="url(#paint5_linear_404_6803)"/>
<path d="M1.24536 22.1937C3.09089 26.5743 6.82713 29.9614 11.441 31.3292C9.86645 29.1485 8.78236 25.8647 8.21451 22.1937H1.24536Z" fill="#F7B731"/>
<path d="M7.74349 16.0002C7.74349 14.6131 7.82093 13.226 7.95644 11.8711H0.55495C0.206493 13.1937 0 14.5679 0 16.0002C0 17.4324 0.206493 18.8066 0.55495 20.1292H7.94999C7.82093 18.7744 7.74349 17.3873 7.74349 16.0002Z" fill="#F7B731"/>
<path d="M11.4345 0.671112C6.82713 2.03885 3.08444 5.42595 1.24536 9.8066H8.21451C8.77591 6.13563 9.86 2.85176 11.4345 0.671112Z" fill="#F7B731"/>
</svg>
