<svg width="19" height="18" viewBox="0 0 19 18" fill="none" xmlns="http://www.w3.org/2000/svg">
<path d="M16.8125 4.47012C16.2746 4.70216 15.6892 4.86915 15.0863 4.93419C15.7123 4.5623 16.1811 3.97477 16.4047 3.28184C15.8173 3.63128 15.1738 3.87631 14.5027 4.00606C14.2223 3.70623 13.883 3.46736 13.5062 3.30436C13.1294 3.14135 12.7231 3.05769 12.3125 3.0586C10.6514 3.0586 9.31542 4.40509 9.31542 6.05743C9.31542 6.28946 9.34354 6.52149 9.38925 6.74473C6.90194 6.61466 4.68358 5.42637 3.20878 3.60704C2.94005 4.06603 2.79923 4.58865 2.80096 5.12052C2.80096 6.16114 3.33007 7.07872 4.1369 7.61837C3.66142 7.59964 3.19707 7.46895 2.78163 7.23692V7.27384C2.78163 8.73106 3.81171 9.93868 5.18456 10.2164C4.92679 10.2834 4.66162 10.3176 4.3953 10.3184C4.20018 10.3184 4.01561 10.299 3.82928 10.2727C4.20897 11.4609 5.31464 12.324 6.63124 12.3522C5.60116 13.159 4.31093 13.6336 2.90995 13.6336C2.65858 13.6336 2.42655 13.6248 2.18573 13.5967C3.51464 14.4492 5.09139 14.9414 6.78944 14.9414C12.3019 14.9414 15.3183 10.3746 15.3183 6.41075C15.3183 6.28067 15.3183 6.15059 15.3096 6.02052C15.8932 5.59337 16.4047 5.06427 16.8125 4.47012Z" fill="#1DA1F2"/>
</svg>
