<svg width="32" height="30" viewBox="0 0 32 30" fill="none" xmlns="http://www.w3.org/2000/svg">
    <defs>
        <linearGradient id="paint0_linear_404_6856" x1="3.55566" y1="10.5883" x2="28.4446" y2="10.5883" gradientUnits="userSpaceOnUse">
            <stop stop-color="#E52D27"/>
            <stop offset="1" stop-color="#B31217"/>
        </linearGradient>
        <linearGradient id="paint1_linear_404_6856" x1="0" y1="18.951" x2="32" y2="18.951" gradientUnits="userSpaceOnUse">
            <stop stop-color="#E52D27"/>
            <stop offset="1" stop-color="#B31217"/>
        </linearGradient>
    </defs>
    <path fill-rule="evenodd" clip-rule="evenodd" d="M5.33344 0H26.6668C27.6486 0 28.4446 0.790088 28.4446 1.76471V19.4118C28.4446 20.3865 27.6486 21.1765 26.6668 21.1765H5.33344C4.3516 21.1765 3.55566 20.3865 3.55566 19.4118V1.76471C3.55566 0.790088 4.3516 0 5.33344 0Z" fill="url(#paint0_linear_404_6856)"/>
<path fill-rule="evenodd" clip-rule="evenodd" d="M26.6668 0H5.33344C4.3516 0 3.55566 0.790088 3.55566 1.76471V19.4118C3.55566 20.3865 4.3516 21.1765 5.33344 21.1765H26.6668C27.6486 21.1765 28.4446 20.3865 28.4446 19.4118V1.76471C28.4446 0.790088 27.6486 0 26.6668 0ZM18.6668 4H13.3335C12.5971 4 12.0001 4.60803 12.0001 5.35807V13.321C12.0001 13.4908 12.0626 13.6546 12.1754 13.7798C12.4241 14.0562 12.8459 14.0749 13.1173 13.8215L15.5496 11.5505C15.8045 11.3125 16.1957 11.3125 16.4506 11.5505L18.883 13.8215C19.0059 13.9363 19.1667 14 19.3335 14C19.7016 14 20.0001 13.696 20.0001 13.321V5.35807C20.0001 4.60803 19.4032 4 18.6668 4Z" fill="#F7B731"/>
<path fill-rule="evenodd" clip-rule="evenodd" d="M1.40933 8.06912L16 18.5294L30.5907 8.06912C30.9887 7.7838 31.5443 7.87276 31.8317 8.26782C31.9411 8.41818 32 8.59895 32 8.78443V26.4706C32 28.4198 30.4081 30 28.4444 30H3.55556C1.59188 30 0 28.4198 0 26.4706V8.78443C0 8.29712 0.397969 7.90207 0.888889 7.90207C1.07574 7.90207 1.25785 7.96052 1.40933 8.06912Z" fill="url(#paint1_linear_404_6856)"/>

</svg>
