<svg width="32" height="31" viewBox="0 0 32 31" fill="none" xmlns="http://www.w3.org/2000/svg">
    <defs>
        <linearGradient id="paint0_linear_404_6824" x1="1.6001" y1="15.1026" x2="32.0001" y2="15.1026" gradientUnits="userSpaceOnUse">
            <stop stop-color="#E52D27"/>
            <stop offset="1" stop-color="#B31217"/>
        </linearGradient>
    </defs>
    <path fill-rule="evenodd" clip-rule="evenodd" d="M3.2 20.6667L0 31L10.4 27.8205L3.2 20.6667Z" fill="#F7B731"/>
<path fill-rule="evenodd" clip-rule="evenodd" d="M16.8001 30.2051C8.40537 30.2051 1.6001 23.4435 1.6001 15.1026C1.6001 6.76165 8.40537 0 16.8001 0C25.1948 0 32.0001 6.76165 32.0001 15.1026C32.0001 23.4435 25.1948 30.2051 16.8001 30.2051Z" fill="#F7B731"/>
<path fill-rule="evenodd" clip-rule="evenodd" d="M16.8001 30.2051C8.40537 30.2051 1.6001 23.4435 1.6001 15.1026C1.6001 6.76165 8.40537 0 16.8001 0C25.1948 0 32.0001 6.76165 32.0001 15.1026C32.0001 23.4435 25.1948 30.2051 16.8001 30.2051ZM9.6001 9.53846C8.71644 9.53846 8.0001 10.2502 8.0001 11.1282C8.0001 12.0062 8.71644 12.7179 9.6001 12.7179H24.0001C24.8838 12.7179 25.6001 12.0062 25.6001 11.1282C25.6001 10.2502 24.8838 9.53846 24.0001 9.53846H9.6001ZM9.6001 15.8974C8.71644 15.8974 8.0001 16.6092 8.0001 17.4872C8.0001 18.3652 8.71644 19.0769 9.6001 19.0769H17.6001C18.4838 19.0769 19.2001 18.3652 19.2001 17.4872C19.2001 16.6092 18.4838 15.8974 17.6001 15.8974H9.6001Z" fill="url(#paint0_linear_404_6824)"/>

</svg>
